# xmcd
#
# Track frame offsets:
#	150
#	17669
#	46872
#	69066
#	82954
#	97029
#	120588
#	146381
#	165216
#	178750
#	208595
#	228594
#	254525
#	271097
#	288102
#
# Disc length: 4149 seconds
#
# Revision: 1
# Processed by: cddbd v1.5.2PL0 Copyright (c) Steve Scherf et al.
# Submitted via: audiograbber 1.83.01
#
DISCID=be10330f
DTITLE=Sampler - Blues gegen Nazis - Hildesheim 2008
DYEAR=2008
DGENRE=Blues
TTITLE0=The Blues Guys and The Guinness Horns - Over Africa
TTITLE1=Das Dritte Ohr - Getränksmann Blues
TTITLE2=Lösekes Blues Gang - Feels Like Rain
TTITLE3=B.B. and The Blues Shacks - Take A Chance
TTITLE4=Dirty Dive Devils - Gangster Of Love
TTITLE5=The Blues Guys and The Guinness Horns - Soul With A Capital S
TTITLE6=Das Dritte Ohr - Rosalie
TTITLE7=Kuddel Renners Blues Orchestra - It Hurts Me Too
TTITLE8=B.B. and The Blues Shacks - Mad Man Blues
TTITLE9=Dirty Dive Devils - Quarter Past 11
TTITLE10=The Blues Guys and The Guinness Horns - Love Rears Its Ugly Head
TTITLE11=Das Dritte Ohr - Hast Du ?
TTITLE12=Lösekes Blues Gang - It's Raining Dogs
TTITLE13=B.B. and The Blues Shacks - If That Ain't Love
TTITLE14=Dirty Dive Devils - She's Untrue
EXTD=
EXTT0=Text/Musik: Gretchen Peters\nerschienen auf: The Blues Guys and The Guinnes
EXTT0=s Horns - Wolga Blues, \nCattitude Records (LC 00020]\n
EXTT1=Text/Musik: Wolff/Schrader\nerschienen auf: Das Dritte Ohr - Der Duft der
EXTT1=Nacht,\nHörsturz (LC06110)
EXTT2=Text/Musik: J. Hiatt\nerschienen auf: Lösekes Blues Gang - Cancun,\nLava 
EXTT2=Music (LC 5649)
EXTT3=Text/Musik: Arlt/Arlt\nerschienen auf: B.B. and The Blues Shacks - Midnite 
EXTT3=Diner,\nCrossCut Records (LC 11070)
EXTT4=Text/Musik: J.G. Watson
EXTT5=Text/Musik: Castillo/Kupka\nerschienen auf: The Blues Guys and The Guinness
EXTT5=Horns - Wolga Blues, \nCattitude Records (LC 00020)
EXTT6=Text/Musik: Wolff/Schrader\nerschienen auf: Das Dritte Ohr - Der Duft der
EXTT6=Nacht,\nHörsturz (LC06110)
EXTT7=Text/Musik: R. Johnson
EXTT8=Text/Musik: Arlt/Arlt\nerschienen auf: B.B. and The Blues Shacks - Blue Ave
EXTT8=nue,\nCrossCut Records (LC 11079)
EXTT9=Text/Musik: S. Quast
EXTT10=Text/Musik: Vernon Reid\nerschienen auf: The Blues Guys and The Guinness H
EXTT10=orns - Wolga Blues, \nCattitude Records (LC 00020)
EXTT11=Text/Musik: Wolff/Schrader\nerschienen auf: Das Dritte Ohr - Der Duft de
EXTT11=r Nacht,\nHörsturz (LC06110)
EXTT12=Text/Musik: Ringe/Stehr\nerschienen auf: Lösekes Blues Gang - Cancun,\nL
EXTT12=ava Music (LC 5649)
EXTT13=Text/Musik: Arlt/Arlt\nerschienen auf: B.B. and The Blues Shacks - Blue Av
EXTT13=enue,\nCrossCut Records (LC 11079)
EXTT14=Text/Musik: S. Quast
PLAYORDER=
